HIERARCHY
ROOT SpineBase
{
  OFFSET 0.000000 0.000000 0.000000
  CHANNELS 6 Xposition Yposition Zposition Zrotation Xrotation Yrotation
  JOINT SpineMid
  {
    OFFSET 0.000000 23.609052 -0.000000
    CHANNELS 3 Zrotation Xrotation Yrotation
    JOINT SpineShoulder
    {
      OFFSET 0.007007 17.551016 -0.605460
      CHANNELS 3 Zrotation Xrotation Yrotation
      JOINT Neck
      {
        OFFSET 0.035969 5.806928 -0.418077
        CHANNELS 3 Zrotation Xrotation Yrotation
        JOINT Head
        {
          OFFSET 3.123636 10.495136 2.828748
          CHANNELS 3 Zrotation Xrotation Yrotation
          End Site
          {
            OFFSET 0 0 0
          }
        }
      }
      JOINT ShoulderLeft
      {
        OFFSET -5.798271 -3.872235 -10.593261
        CHANNELS 3 Zrotation Xrotation Yrotation
        JOINT ElbowLeft
        {
          OFFSET -0.859727 -20.662699 -3.750075
          CHANNELS 3 Zrotation Xrotation Yrotation
          JOINT WristLeft
          {
            OFFSET 2.172195 -21.801520 -0.877073
            CHANNELS 3 Zrotation Xrotation Yrotation
            JOINT HandLeft
            {
              OFFSET 0.393327 -6.456226 0.068732
              CHANNELS 3 Zrotation Xrotation Yrotation
              JOINT HandTipLeft
              {
                OFFSET 1.019914 -5.705100 -0.750790
                CHANNELS 3 Zrotation Xrotation Yrotation
                End Site
                {
                  OFFSET 0 0 0
                }
              }
              JOINT ThumbLeft
              {
                OFFSET 0.356403 0.540607 0.472051
                CHANNELS 3 Zrotation Xrotation Yrotation
                End Site
                {
                  OFFSET 0 0 0
                }
              }
            }
          }
        }
      }
      JOINT ShoulderRight
      {
        OFFSET 6.280502 -4.117521 11.354033
        CHANNELS 3 Zrotation Xrotation Yrotation
        JOINT ElbowRight
        {
          OFFSET 4.049285 -26.273346 4.373992
          CHANNELS 3 Zrotation Xrotation Yrotation
          JOINT WristRight
          {
            OFFSET -0.729250 -25.962872 0.617082
            CHANNELS 3 Zrotation Xrotation Yrotation
            JOINT HandRight
            {
              OFFSET -1.375512 -6.700361 0.252424
              CHANNELS 3 Zrotation Xrotation Yrotation
              JOINT HandTipRight
              {
                OFFSET 0.191765 -3.257408 -1.108463
                CHANNELS 3 Zrotation Xrotation Yrotation
                End Site
                {
                  OFFSET 0 0 0
                }
              }
              JOINT ThumbRight
              {
                OFFSET 0.191344 0.126750 -1.866463
                CHANNELS 3 Zrotation Xrotation Yrotation
                End Site
                {
                  OFFSET 0 0 0
                }
              }
            }
          }
        }
      }
    }
  }
  JOINT HipLeft
  {
    OFFSET -2.007110 1.073742 -7.493116
    CHANNELS 3 Zrotation Xrotation Yrotation
    JOINT KneeLeft
    {
      OFFSET -9.138140 -40.906207 8.386233
      CHANNELS 3 Zrotation Xrotation Yrotation
      JOINT AnkleLeft
      {
        OFFSET -5.083913 -36.896960 7.791485
        CHANNELS 3 Zrotation Xrotation Yrotation
        JOINT FootLeft
        {
          OFFSET 5.927191 -4.185039 -4.438137
          CHANNELS 3 Zrotation Xrotation Yrotation
          End Site
          {
            OFFSET 0 0 0
          }
        }
      }
    }
  }
  JOINT HipRight
  {
    OFFSET 2.708488 -0.366779 2.100603
    CHANNELS 3 Zrotation Xrotation Yrotation
    JOINT KneeRight
    {
      OFFSET -8.026625 -41.179815 8.276098
      CHANNELS 3 Zrotation Xrotation Yrotation
      JOINT AnkleRight
      {
        OFFSET -6.589756 -32.476354 4.792387
        CHANNELS 3 Zrotation Xrotation Yrotation
        JOINT FootRight
        {
          OFFSET 7.402205 -3.414812 -5.488847
          CHANNELS 3 Zrotation Xrotation Yrotation
          End Site
          {
            OFFSET 0 0 0
          }
        }
      }
    }
  }
}
MOTION
Frames: 5
Frame Time: 0.033333
-40.471543 87.580221 347.341993 -2.600346 0.243801 -42.510101 -0.366549 -0.039406 42.419678 0.049613 -0.252730 -0.112302 12.373950 3.307305 -3.722237 0.000000 0.000000 0.000000 4.793906 -0.102251 -0.140614 -1.422954 -2.684257 0.089907 -4.805852 -10.410064 -0.846250 8.884388 12.634328 -1.343975 0.000000 0.000000 0.000000 0.000000 0.000000 0.000000 89.873542 76.665764 -49.389600 -90.138514 9.342860 -78.230811 48.326675 8.982792 3.143500 -26.426818 -61.602742 -13.511122 0.000000 0.000000 0.000000 0.000000 0.000000 0.000000 -0.720296 4.149554 41.708868 -3.814672 -3.968192 -0.216095 -3.780409 -12.772836 -12.521621 0.000000 0.000000 0.000000 -0.031673 -0.210708 41.937336 2.232873 -7.363787 1.916700 -23.106512 -9.157299 2.338083 0.000000 0.000000 0.000000
-40.475693 87.489229 347.213374 -2.589835 0.125978 -42.178535 -0.209971 -0.194680 42.081346 0.050072 -0.345583 -0.111291 12.716978 4.089688 -4.061296 0.000000 0.000000 0.000000 5.096978 -0.051900 -0.207630 -2.052554 -1.971729 0.176616 -3.924106 -8.555440 -0.668671 6.151558 11.605621 -0.317466 0.000000 0.000000 0.000000 0.000000 0.000000 0.000000 102.419771 77.101468 -61.315838 -90.708529 9.565452 -80.498034 47.573127 7.734578 3.194557 -16.069668 -57.932285 -6.975432 0.000000 0.000000 0.000000 0.000000 0.000000 0.000000 -0.884902 4.399704 41.351066 -4.257828 -4.023901 -0.323794 -13.004369 -20.333696 -20.460583 0.000000 0.000000 0.000000 0.777148 -0.361510 41.843814 0.974230 -6.016818 1.401669 -25.304266 -11.597771 4.660419 0.000000 0.000000 0.000000
-40.475957 87.315015 347.076440 -2.590379 -0.105746 -42.316978 -0.093982 -0.313181 42.211850 0.051852 -0.401651 -0.109806 13.280553 4.995189 -4.520349 0.000000 0.000000 0.000000 4.517194 0.900351 -0.159103 -1.571845 -2.981581 0.037644 -2.831915 -9.380970 -0.645613 5.328280 12.631322 -0.352808 0.000000 0.000000 0.000000 0.000000 0.000000 0.000000 100.311461 76.908948 -59.502171 -90.710724 10.252687 -79.766237 48.570901 11.934600 2.910496 -20.826454 -64.692447 -11.661405 0.000000 0.000000 0.000000 0.000000 0.000000 0.000000 -1.057463 4.461778 41.491741 -4.563279 -3.719917 -0.444231 -36.054308 -30.394972 -42.028895 0.000000 0.000000 0.000000 1.034911 -0.393054 42.089634 0.527110 -5.121227 1.149957 -35.018415 -19.146545 3.309917 0.000000 0.000000 0.000000
-40.485584 87.373688 347.023883 -2.627219 -0.366161 -43.211610 -0.034041 -0.362831 43.098634 0.045010 -0.419656 -0.110025 13.790878 5.815004 -4.939554 0.000000 0.000000 0.000000 4.526919 0.925159 -0.154507 -1.717868 -2.870265 0.004997 -2.655218 -9.964451 -0.692818 4.356971 12.440033 -0.179316 0.000000 0.000000 0.000000 0.000000 0.000000 0.000000 121.910212 78.023790 -81.912838 -90.230943 9.003457 -84.327562 51.368780 7.070300 3.566385 -10.964320 -60.958844 -5.449948 0.000000 0.000000 0.000000 0.000000 0.000000 0.000000 -1.166556 4.440063 42.420728 -4.513628 -3.556208 -0.458606 -41.563665 -31.224375 -46.071756 0.000000 0.000000 0.000000 0.428013 0.163636 42.861291 1.112548 -6.175068 1.459059 -38.881105 -21.429986 8.101569 0.000000 0.000000 0.000000
-40.523309 87.576313 347.070853 -2.707127 -0.612713 -44.075537 -0.047410 -0.337684 43.955074 0.030060 -0.400835 -0.112606 14.366578 6.495892 -5.339614 0.000000 0.000000 0.000000 3.875397 1.988743 -0.054265 -0.895014 -4.328851 -0.161322 -2.198926 -11.793502 -0.761360 3.563333 15.223669 0.057388 0.000000 0.000000 0.000000 0.000000 0.000000 0.000000 132.746124 77.398091 -92.388028 -90.513412 9.073166 -86.450663 51.804011 2.720248 4.103565 -9.939309 -57.570568 -5.002973 0.000000 0.000000 0.000000 0.000000 0.000000 0.000000 -1.212804 4.521306 43.323874 -4.314401 -3.755414 -0.393437 -34.410477 -29.284023 -37.429906 0.000000 0.000000 0.000000 1.076201 0.268114 43.917583 0.130118 -4.269725 0.917638 -35.958991 -20.703488 8.124105 0.000000 0.000000 0.000000
